HIERARCHY
ROOT Hips
{
	OFFSET -14.64140 90.27770 -84.91600
	CHANNELS 6 Xposition Yposition Zposition Zrotation Xrotation Yrotation
	JOINT Spine
	{
		OFFSET 0.00000 13.20850 -1.60436
		CHANNELS 3 Zrotation Xrotation Yrotation
		JOINT Spine1
		{
			OFFSET 0.00000 8.61716 0.00000
			CHANNELS 3 Zrotation Xrotation Yrotation
			JOINT Spine2
			{
				OFFSET 0.00000 8.61717 0.00000
				CHANNELS 3 Zrotation Xrotation Yrotation
				JOINT Spine3
				{
					OFFSET 0.00000 8.61717 0.00000
					CHANNELS 3 Zrotation Xrotation Yrotation
					JOINT Neck
					{
						OFFSET 0.00000 11.07920 1.10792
						CHANNELS 3 Zrotation Xrotation Yrotation
						JOINT Neck1
						{
							OFFSET 0.00000 7.08032 0.00000
							CHANNELS 3 Zrotation Xrotation Yrotation
							JOINT Head
							{
								OFFSET 0.00000 7.08031 0.00000
								CHANNELS 3 Zrotation Xrotation Yrotation
								End site
								{
									OFFSET 0.00000 0.00000 0.00000
								}
							}
						}
					}
					JOINT RightShoulder
					{
						OFFSET -0.01000 7.91373 5.19711
						CHANNELS 3 Zrotation Xrotation Yrotation
						JOINT RightArm
						{
							OFFSET -18.41580 0.00000 0.00000
							CHANNELS 3 Zrotation Xrotation Yrotation
							JOINT RightForeArm
							{
								OFFSET -29.11090 0.00000 0.00000
								CHANNELS 3 Zrotation Xrotation Yrotation
								JOINT RightHand
								{
									OFFSET -24.65040 0.00000 0.00000
									CHANNELS 3 Zrotation Xrotation Yrotation
									JOINT RightHandThumb1
									{
										OFFSET -5.35114 -0.85590 3.97906
										CHANNELS 3 Zrotation Xrotation Yrotation
										JOINT RightHandThumb2
										{
											OFFSET -4.52789 0.00000 0.00000
											CHANNELS 3 Zrotation Xrotation Yrotation
											JOINT RightHandThumb3
											{
												OFFSET -2.46976 0.00000 0.00000
												CHANNELS 3 Zrotation Xrotation Yrotation
												End site
												{
													OFFSET 0.00000 0.00000 0.00000
												}
											}
										}
									}
									JOINT RightHandIndex1
									{
										OFFSET -14.26970 0.00000 2.88139
										CHANNELS 3 Zrotation Xrotation Yrotation
										JOINT RightHandIndex2
										{
											OFFSET -5.48836 0.00000 0.00000
											CHANNELS 3 Zrotation Xrotation Yrotation
											JOINT RightHandIndex3
											{
												OFFSET -3.01859 0.00000 0.00000
												CHANNELS 3 Zrotation Xrotation Yrotation
												End site
												{
													OFFSET 0.00000 0.00000 0.00000
												}
											}
										}
									}
									JOINT RightHandMiddle1
									{
										OFFSET -14.26970 0.00000 -0.09147
										CHANNELS 3 Zrotation Xrotation Yrotation
										JOINT RightHandMiddle2
										{
											OFFSET -6.17441 0.00000 0.00000
											CHANNELS 3 Zrotation Xrotation Yrotation
											JOINT RightHandMiddle3
											{
												OFFSET -3.56743 0.00000 0.00000
												CHANNELS 3 Zrotation Xrotation Yrotation
												End site
												{
													OFFSET 0.00000 0.00000 0.00000
												}
											}
										}
									}
									JOINT RightHandRing1
									{
										OFFSET -12.69180 0.00000 -3.06433
										CHANNELS 3 Zrotation Xrotation Yrotation
										JOINT RightHandRing2
										{
											OFFSET -5.62556 0.00000 0.00000
											CHANNELS 3 Zrotation Xrotation Yrotation
											JOINT RightHandRing3
											{
												OFFSET -3.56744 0.00000 0.00000
												CHANNELS 3 Zrotation Xrotation Yrotation
												End site
												{
													OFFSET 0.00000 0.00000 0.00000
												}
											}
										}
									}
									JOINT RightHandPinky1
									{
										OFFSET -11.11390 0.00000 -6.03719
										CHANNELS 3 Zrotation Xrotation Yrotation
										JOINT RightHandPinky2
										{
											OFFSET -4.52789 0.00000 0.00000
											CHANNELS 3 Zrotation Xrotation Yrotation
											JOINT RightHandPinky3
											{
												OFFSET -2.46976 0.00000 0.00000
												CHANNELS 3 Zrotation Xrotation Yrotation
												End site
												{
													OFFSET 0.00000 0.00000 0.00000
												}
											}
										}
									}
								}
							}
						}
					}
					JOINT LeftShoulder
					{
						OFFSET 0.01000 7.91373 5.19711
						CHANNELS 3 Zrotation Xrotation Yrotation
						JOINT LeftArm
						{
							OFFSET 18.41580 0.00000 0.00000
							CHANNELS 3 Zrotation Xrotation Yrotation
							JOINT LeftForeArm
							{
								OFFSET 29.11090 0.00000 0.00000
								CHANNELS 3 Zrotation Xrotation Yrotation
								JOINT LeftHand
								{
									OFFSET 24.65040 0.00000 0.00000
									CHANNELS 3 Zrotation Xrotation Yrotation
									JOINT LeftHandThumb1
									{
										OFFSET 5.35114 -0.85590 3.97906
										CHANNELS 3 Zrotation Xrotation Yrotation
										JOINT LeftHandThumb2
										{
											OFFSET 4.52789 0.00000 0.00000
											CHANNELS 3 Zrotation Xrotation Yrotation
											JOINT LeftHandThumb3
											{
												OFFSET 2.46977 0.00000 0.00000
												CHANNELS 3 Zrotation Xrotation Yrotation
												End site
												{
													OFFSET 0.00000 0.00000 0.00000
												}
											}
										}
									}
									JOINT LeftHandIndex1
									{
										OFFSET 14.26970 0.00000 2.88139
										CHANNELS 3 Zrotation Xrotation Yrotation
										JOINT LeftHandIndex2
										{
											OFFSET 5.48836 0.00000 0.00000
											CHANNELS 3 Zrotation Xrotation Yrotation
											JOINT LeftHandIndex3
											{
												OFFSET 3.01859 0.00000 0.00000
												CHANNELS 3 Zrotation Xrotation Yrotation
												End site
												{
													OFFSET 0.00000 0.00000 0.00000
												}
											}
										}
									}
									JOINT LeftHandMiddle1
									{
										OFFSET 14.26970 0.00000 -0.09147
										CHANNELS 3 Zrotation Xrotation Yrotation
										JOINT LeftHandMiddle2
										{
											OFFSET 6.17440 0.00000 0.00000
											CHANNELS 3 Zrotation Xrotation Yrotation
											JOINT LeftHandMiddle3
											{
												OFFSET 3.56744 0.00000 0.00000
												CHANNELS 3 Zrotation Xrotation Yrotation
												End site
												{
													OFFSET 0.00000 0.00000 0.00000
												}
											}
										}
									}
									JOINT LeftHandRing1
									{
										OFFSET 12.69180 0.00000 -3.06433
										CHANNELS 3 Zrotation Xrotation Yrotation
										JOINT LeftHandRing2
										{
											OFFSET 5.62556 0.00000 0.00000
											CHANNELS 3 Zrotation Xrotation Yrotation
											JOINT LeftHandRing3
											{
												OFFSET 3.56744 0.00000 0.00000
												CHANNELS 3 Zrotation Xrotation Yrotation
												End site
												{
													OFFSET 0.00000 0.00000 0.00000
												}
											}
										}
									}
									JOINT LeftHandPinky1
									{
										OFFSET 11.11390 0.00000 -6.03719
										CHANNELS 3 Zrotation Xrotation Yrotation
										JOINT LeftHandPinky2
										{
											OFFSET 4.52789 0.00000 0.00000
											CHANNELS 3 Zrotation Xrotation Yrotation
											JOINT LeftHandPinky3
											{
												OFFSET 2.46976 0.00000 0.00000
												CHANNELS 3 Zrotation Xrotation Yrotation
												End site
												{
													OFFSET 0.00000 0.00000 0.00000
												}
											}
										}
									}
								}
							}
						}
					}
					JOINT pCube4
					{
						OFFSET 0.00000 10.91090 1.10792
						CHANNELS 3 Zrotation Xrotation Yrotation
						End site
						{
							OFFSET 0.00000 0.00000 0.00000
						}
					}
				}
			}
		}
	}
	JOINT RightUpLeg
	{
		OFFSET -9.98441 0.00000 0.00000
		CHANNELS 3 Zrotation Xrotation Yrotation
		JOINT RightLeg
		{
			OFFSET 0.00000 -42.11790 0.00000
			CHANNELS 3 Zrotation Xrotation Yrotation
			JOINT RightFoot
			{
				OFFSET 0.00000 -45.00020 -0.00001
				CHANNELS 3 Zrotation Xrotation Yrotation
				JOINT RightForeFoot
				{
					OFFSET 0.00000 -3.74820 0.00000
					CHANNELS 3 Zrotation Xrotation Yrotation
					JOINT RightToeBase
					{
						OFFSET 0.00000 0.06325 14.43120
						CHANNELS 3 Zrotation Xrotation Yrotation
						End site
						{
							OFFSET 0.00000 0.00000 0.00000
						}
					}
				}
			}
		}
	}
	JOINT LeftUpLeg
	{
		OFFSET 9.98441 0.00000 0.00000
		CHANNELS 3 Zrotation Xrotation Yrotation
		JOINT LeftLeg
		{
			OFFSET 0.00000 -42.11800 0.00000
			CHANNELS 3 Zrotation Xrotation Yrotation
			JOINT LeftFoot
			{
				OFFSET 0.00000 -45.00070 0.00000
				CHANNELS 3 Zrotation Xrotation Yrotation
				JOINT LeftForeFoot
				{
					OFFSET 0.00000 -3.74824 0.00000
					CHANNELS 3 Zrotation Xrotation Yrotation
					JOINT LeftToeBase
					{
						OFFSET 0.00000 0.06325 14.43110
						CHANNELS 3 Zrotation Xrotation Yrotation
						End site
						{
							OFFSET 0.00000 0.00000 0.00000
						}
					}
				}
			}
		}
	}
}
MOTION
Frames: 4
Frame Time: 0.050000
0.006934853027240251 -0.0026085158434256284 -0.03203013169523562 0.04173702378407406 -0.0033304566966901824 0.042625699796872724 -1.9627123715570876 1.190174006995245 -0.9907449197748356 -0.9480763554198037 3.76323006093127 0.33968058832705494 -1.1235728214154435 -1.4410986858676802 -1.0548269044774745 0.6342624288733822 0.33308246547517323 -0.8441719319006153 0.5636880781424254 11.330134289154676 -2.089508040790658 0.37238836314366763 -0.9967082131464877 -6.101198286111605 1.1551579296073404 -16.498983573883354 -0.5661600658814873 -3.0691019159851862 1.2301634334131772 -15.309905963263326 73.22929738257544 19.424578517676927 0.8637115892565852 1.3725028673950528 5.55037250018526 44.815557461864586 21.359955237654116 -0.08270687769322983 -4.376388533657418 4.530683788225468 -0.08341853974545849 -1.5536433648560186 -0.041166084915360945 -0.02716147142897725 -56.21786544874017 0.030564174251851754 -0.0007554656136008707 -56.23954445880517 -38.732732185332154 -0.03487181582479943 0.0336775529442746 0.03440076837842983 0.01901516961466129 0.01198924879176405 0.017670483660449092 0.03550001131823621 0.035763134485556285 -36.6734315040295 -0.04736860284012341 -0.038839554345837385 0.047083595121168116 0.012611583779522215 -0.02691474042397661 0.0007092609918677596 0.019066931920281697 0.004844326759096714 -19.773713896382002 0.034463084399205646 0.0034764581960907022 0.020195596943240874 0.024739344105095727 0.016914870204155642 -0.027796376968754484 0.04988427407921778 -0.0015466566051058064 24.010733186383845 -0.0224440509884561 -0.03599870142847352 28.838453905244975 0.024352671088068614 0.011856309394294197 28.885649176166215 -0.0279494533389271 0.03369153325820827 2.9928884780441507 0.919174908821482 13.051241681998572 -69.35222996347963 28.557686055813033 -5.1348830021633765 4.173021395955664 -8.008805483502014 -49.123247838973334 -12.077133980301799 2.3777395212352985 -0.16505683003979243 -0.42662695179049026 0.09013443894019466 -8.137848325414154 0.022366120857705306 0.01102185525085346 44.52341517449039 -0.04014789825263992 0.02175646463828239 44.5620392518428 12.45025238945875 -0.006491331415198252 0.002527972487121173 -0.014837903983329147 0.035276146248563005 -0.023208318399676114 -0.0070586889264965605 0.012432284389083026 0.029104260484379342 11.099985666338013 -0.0013377072502219985 3.052564639872517e-05 -0.004923072898068605 0.004519986268421201 0.010355408948885533 -0.020285886756358132 -0.033186953835523336 0.0463609163455811 4.782579271475469 0.003739562629682144 -0.01790381755621228 -0.00047595398984767674 0.024044181244992274 0.001000724331483259 -0.038339555662382806 0.016108859413681835 -0.047650195136074915 -5.6300687594796175 -0.017200118592554416 -0.006601797906335667 -6.721426571340019 0.04885757555847928 0.03852924575157654 -6.712089414827852 0.0009002958268899455 -0.0399496233760803 -0.008957559322966607 0.01647524432048758 -0.005315374337333124 8.051858391431798 3.5025034630996785 -19.247418888791543 0.0194758348913412 10.415464161586181 0.026180918850050913 -5.586485888826998 -15.685382004622413 3.149728692150252 0.03085313362905321 -0.006504936115711062 -0.03235616434076599 0.011404844148777873 4.705703937267222 0.012597155443211662 12.448896245642178 -8.203818323634296 6.894905112899527 -0.01670492357680638 46.34641607873432 0.008449352184283726 -4.314017591917561 -14.716953716284122 -3.8016388043019407 0.02393103366418978 -0.025729763322662788 -0.030219081570180148 -0.0163932072826725 -10.731552403954765 0.04616836320843101 
-0.0056613938802067805 -0.026385019756072166 0.041150871480032 -0.019319603245140916 0.030846569150823934 -0.008834398423421545 -1.9296520322085835 1.2228786058922334 -1.017045294192908 -0.9451176023594174 3.690804209838921 0.37832603663833175 -1.190661601845697 -1.4987157266133964 -1.0117165794909535 0.47609856360484576 0.30262702004775716 -0.81765189717077 0.4537085109995018 11.186367704557723 -1.766613302823971 0.34420240222422654 -1.0503885647164848 -5.370692891784949 1.0109590401606479 -16.588597577845558 -0.44832204453144364 -2.9653382169922566 1.3028596300598656 -15.20648899854992 73.40102290377045 19.29165287905866 0.5980812033676531 1.7020515887620293 5.730748894726997 44.603993428887826 21.560476629177447 -0.08261031757963391 -4.17710401658126 4.512660086890517 -0.13857189784163562 -1.5839936552512464 0.04179050880693321 -0.04769856031783802 -56.199967762946564 -0.017157160950907573 -0.04772253434373178 -56.23921241467113 -38.735287486071286 -0.04212061057921076 -0.025599827017126858 0.0038006279141479644 -0.016227079371425583 -0.01891892325022693 0.0210129501171334 0.009150596513735227 0.0440532574407545 -36.72095651280986 0.010898090949105786 0.036734830825992416 0.003454400900381927 0.04100250888543165 -0.03633968228158145 0.0227064378992621 0.01833980432508212 -0.046789409886267286 -19.746978041284603 -0.0015785712775881996 0.017974302073004322 -0.03152311358297201 0.02106324819731962 0.003338613300928527 -0.04206263193396622 0.04790076532506634 -0.02716816066426458 24.06374018555638 0.002858338479279537 0.006409208255486721 28.914827215624097 -0.009105939502639842 0.0072996299738695685 28.842044266082898 -0.017152580289884953 0.03722084604617143 3.187274989004407 0.9895299107986238 13.003871919154005 -69.34523733846467 28.66173830907927 -5.530585745608681 3.288365510003064 -7.471103732353788 -49.07781994520887 -12.464254566397281 2.336299305403682 -0.19226003743640596 -0.5204127773813351 0.11233247949409056 -8.086228363925585 0.02571569116210574 -0.04156641765078026 44.58309701930783 0.00767598628331981 -0.04796162415463213 44.54262230534222 12.466006440202362 -0.01360132177464718 0.01644240743394897 0.013217435023999132 0.01861303846617907 0.01986667652938895 0.03158346797871957 -0.003216394643460994 0.02228323269811167 11.113965522396855 -0.00047868867926127294 0.014020348762092934 -0.03479329031609746 -0.02125254942920359 0.02312957110888386 -0.017350842713893727 0.02862689848387271 0.008597068922538201 4.813410023765087 -0.0083486879197028 -0.002679704590714056 -0.0019137770561184395 0.022867637375895037 -0.004037404585566106 0.017553628427869897 -0.015694942652516763 -0.0118508860427357 -5.551493774072085 0.006846275472529345 -0.03017979712855018 -6.740418592070794 -0.022316063118456197 -0.046488225050930976 -6.737647307773461 -0.04420729769899179 0.005305445397279792 0.028954594901163474 -0.03975153721609822 -0.02811024304189117 8.03186140520112 3.4933046043792477 -19.225960549913808 -0.04513221180355197 10.379521439634246 0.0228987116212536 -5.633196328522011 -15.613964945143582 3.1452265679258145 0.03230497613370098 0.007271517740944916 -0.013065171937253326 0.03563850882728892 4.74239323284587 0.020883362941510608 12.432636505244696 -8.274354137522796 6.88663371589432 0.019569128167503745 46.38699361205635 -0.005589058116014363 -4.314014945680148 -14.736180871329584 -3.829125330470059 0.002625472153293962 0.04539071256809139 0.036514533118943884 -0.015502436890223069 -10.731996599681397 0.04190748541537251 
-0.03672134010515062 0.004826304735687771 -0.03604659627259817 0.03892396096407874 -0.046999484264881514 -0.042022762752004714 -1.971571293472543 1.4065679813999585 -1.050358170057649 -0.9374555080824593 3.7075849091044133 0.408988563911614 -1.118518270574538 -1.4264679994406089 -0.9263153736172385 0.3826286089112061 0.25428457416751515 -0.7597142694539258 0.30771916840599184 11.08836160879978 -1.5641342036868442 0.3446463057704958 -1.0741182848238608 -4.836168973472011 0.9317586962743362 -16.669306820172174 -0.42261428232876663 -2.837082622152359 1.2177471701595335 -15.08091896110563 73.44451846216832 18.763324501915562 0.6778890671674913 1.8346913937369087 5.894599058631945 44.83662195473372 21.69434020271578 -0.05453345223577527 -4.127432266089328 4.529962982569383 -0.13919915030544008 -1.6385163897855974 -0.011929954631994793 -0.0032890962216223472 -56.20472233349699 0.005453296296317895 -0.004142387156115788 -56.20523288882646 -38.740532803769554 -0.045436028513600735 -0.02484007763584995 -0.02919974172841029 -0.03787820369519451 -0.009711266247427694 0.045596639680795734 -0.009761653005187398 -0.014448729009160428 -36.6728054162345 -0.016027262975933678 -0.029190993766565088 -0.022964531496949547 -0.0208404735771488 -0.04238582607569055 0.019904421109922098 0.027085051760982234 0.008067726923774747 -19.770665477782398 0.03330778762672058 0.02777957353329991 -0.025516941931645973 -0.027717758537028868 -0.01567513743595759 0.01807055238465259 -0.026326113132335616 -0.03791264688723643 24.07837566528989 0.0069002088798390164 0.02814876821768852 28.818658229261768 -0.018932882280337744 0.03798321851114075 28.84066563603226 0.0065535542784135176 -0.024760494306967855 3.2226692818488223 0.9737006787210803 12.950611570384748 -69.1669179457203 28.42824118211134 -5.944088127551511 3.046411694088995 -7.04713665483223 -49.47461470021119 -12.77507809492295 2.358135609399481 -0.16286594788469377 -0.47848271937396236 0.06782813743873736 -8.086797737589402 -0.01601787381505409 -0.02685387554937788 44.57412475270912 0.007757726541131153 -0.02451481514395463 44.59205551701087 12.439329524391805 -0.021563048847881156 -0.04586917364959288 -0.005589235030168119 -0.0010247667055473088 0.0034981993691705587 0.012457227536916535 0.03852181294535168 0.04443163176405102 11.092419673271802 -0.015905254512162577 -0.03968426287785608 -0.007519734176156732 0.010466052013055015 0.005423394491413189 0.0043816524980366525 0.026287651890613047 -0.02922882642862178 4.791192996543729 -0.020438767034852593 -0.028129755695861305 -0.015756535185757335 0.015432596852182243 0.0028953005968705356 -0.00864806100932698 -0.011214829328656585 -0.037519815636095376 -5.615288819431504 -0.03933188954336577 -0.04212094168092665 -6.68244482463113 -0.01409639046219808 0.005564090444987413 -6.686055767438217 -0.0171266667921274 0.006405221443133389 -0.00385146257232747 0.02471554047976621 -0.020149259898384293 8.008076678542404 3.462113267353538 -19.20970055534396 -0.016483499011899515 10.380157932283925 0.021307928438299907 -5.648186028427405 -15.640757909114736 3.204868579168189 -0.014675462608004328 -0.028955096081261882 0.011010653355871276 -0.023673962504700864 4.718614948488307 0.00031786206851789863 12.428694050858155 -8.22126758814908 6.875116792487998 0.03325095845253253 46.3716387087838 0.009102947081488922 -4.2970210780064395 -14.710254672016225 -3.803814097512542 0.00899055246363076 -0.029220989575510756 0.03166420408670498 -0.000608900912463678 -10.747936438534504 0.012266263039001992 
-0.008478890195001197 0.014202583924156853 -0.008788031202940525 0.0059814151459775585 -0.002346394966401469 0.010661922853037235 -1.909426709630013 1.7176086363335086 -1.0351883815452667 -0.8740766613233288 3.72502366117332 0.41955217428390434 -1.0917837239475519 -1.3468523666853658 -0.8691544401872459 0.2930450412327629 0.2542318869986018 -0.7355407558223744 0.22795837249443257 10.929419792963177 -1.3664548905305114 0.3367684262606464 -1.0816419994545379 -4.495302389439139 0.8754181397667858 -16.66537668364157 -0.41275842207464875 -2.6070295757901785 1.28762634537711 -14.98412915732972 73.35550513750313 18.0425891060157 1.0304536552626185 1.6427889655582104 6.125642173762835 45.396561983826956 21.662156679544907 -0.05517611251439086 -4.1456159370847105 4.564644424076531 -0.10413482865716413 -1.5687896004941628 0.027465253552482517 -0.0289286930883157 -56.20023453382904 0.0030375038332850395 -0.02079990350704601 -56.23208942953916 -38.76627304441765 0.03602598453437509 -0.03202255914964825 -0.01977525323315811 -0.015982153569042992 -0.041110374261657485 0.02237364291165983 0.0075649335837295025 0.02174722991203198 -36.695272667886975 -0.024298732091135616 0.002446552543679631 0.03697407508044227 -0.014509973704597083 0.04742524906859851 -0.002747875715967052 -0.03044259221042501 0.03901812445264395 -19.74555164653611 -0.03405209291078832 0.03395809839259586 -0.04315069158467298 0.04759776819613688 -0.041316277807104645 -0.00106848145935666 0.016103304561028896 0.02801979165167991 24.077557352164156 0.00596315465199054 -0.03551095962242799 28.854516768556994 -0.026903463115582813 0.011551562879311156 28.870405256671823 0.0010435277017265736 0.012498133895467358 3.076093430523076 1.0077275009288207 12.933077505616197 -68.99544745655753 27.99263048416776 -6.382650069253843 3.2158169450375764 -6.59339668235811 -50.196076948695 -12.95529357356743 2.340304251410236 -0.26423438953465095 -0.5060168356252437 0.022918096338912806 -8.081918537593813 0.00327100072800895 -0.005982851666528373 44.5438310770559 0.024136936817310214 0.02316003455686151 44.557688673269276 12.468186086041323 -0.0008859919955957838 -0.0185891567420915 0.004727073233224827 -0.048122082594792226 -0.016287185573216807 0.028258783130238187 0.03033238654372626 -0.029565402277215262 11.12543927286079 -0.04067511351662686 0.042941432799262096 -0.040060976816637964 -0.04828799887985836 -0.001065161022838722 -0.013540894711195562 -0.011321266532531649 0.024242542418225793 4.745628902240049 -0.01732766601985306 0.007013743993755613 0.015334945724441669 -0.0017164414620444973 0.042981497896572955 -0.012103662045793556 0.008599255381623512 -0.0249631763287533 -5.61564934937137 0.029148164467385527 0.01641662991155741 -6.728579508785236 -0.03066811358575958 -0.03780745035779889 -6.711504221216655 -0.03943457347859159 -0.015435470986924254 -0.03147305376273311 -0.04406296187786048 0.002796416713321388 8.051223489127807 3.461705710346894 -19.213269939714447 0.021006052541279747 10.40638791471352 -0.0007423487571762508 -5.662059080630532 -15.690869055584436 3.2400658446458186 -0.039966030995588486 0.013482076507377257 -0.014101560981856172 0.02017112163580313 4.687443263080294 -0.03882674666066637 12.505649026688692 -8.270154094297492 6.898182731327707 0.01839411656379643 46.40674636530432 0.04443576788618199 -4.338198247444939 -14.798252866655186 -3.8240239053424294 0.03300442460325482 0.0009262432916690084 0.027089218900394445 0.041287877228239726 -10.752433905663791 -0.0037250215483189326 
